<?xml version="1.0" encoding="UTF-8"?>
<!DOCTYPE svg PUBLIC "-//W3C//DTD SVG 1.1//EN" "http://www.w3.org/Graphics/SVG/1.1/DTD/svg11.dtd">
<svg xmlns="http://www.w3.org/2000/svg" version="1.1" width="154px" height="180px" style="shape-rendering:geometricPrecision; text-rendering:geometricPrecision; image-rendering:optimizeQuality; fill-rule:evenodd; clip-rule:evenodd" xmlns:xlink="http://www.w3.org/1999/xlink">
<g><path style="opacity:0.962" fill="#a8e7df" d="M 140.5,38.5 C 140.657,37.1266 140.49,35.7932 140,34.5C 139.667,34.8333 139.333,35.1667 139,35.5C 137.303,31.9106 135.469,29.5773 133.5,28.5C 134.374,25.769 133.374,23.6024 130.5,22C 129.069,21.5348 127.903,20.7014 127,19.5C 126.292,20.3805 125.458,21.0472 124.5,21.5C 123.207,19.7041 121.707,18.0375 120,16.5C 118.636,17.2583 117.469,16.7583 116.5,15C 117.999,14.1618 118.332,13.3285 117.5,12.5C 119.779,6.37937 124.112,3.87937 130.5,5C 136.38,11.1802 142.547,17.0136 149,22.5C 149.147,29.242 146.314,34.5754 140.5,38.5 Z"/></g>
<g><path style="opacity:0.973" fill="#a1e2e2" d="M 117.5,12.5 C 118.332,13.3285 117.999,14.1618 116.5,15C 117.469,16.7583 118.636,17.2583 120,16.5C 121.707,18.0375 123.207,19.7041 124.5,21.5C 125.882,24.3943 127.882,26.8943 130.5,29C 131.577,29.4696 132.577,29.3029 133.5,28.5C 135.469,29.5773 137.303,31.9106 139,35.5C 139.333,35.1667 139.667,34.8333 140,34.5C 140.49,35.7932 140.657,37.1266 140.5,38.5C 135.472,43.8595 130.472,49.1929 125.5,54.5C 123.57,50.8998 120.903,47.8998 117.5,45.5C 119.294,43.2034 121.294,41.0367 123.5,39C 120.872,37.3745 118.539,35.3745 116.5,33C 115.423,32.5304 114.423,32.6971 113.5,33.5C 111.167,30.5 108.5,27.8333 105.5,25.5C 108.792,20.5399 112.792,16.2066 117.5,12.5 Z"/></g>
<g><path style="opacity:0.959" fill="#9adde5" d="M 105.5,25.5 C 108.5,27.8333 111.167,30.5 113.5,33.5C 108.175,40.1569 102.509,46.4903 96.5,52.5C 94.5102,48.1451 91.5102,45.4784 87.5,44.5C 92.7967,37.5356 98.7967,31.2023 105.5,25.5 Z"/></g>
<g><path style="opacity:0.931" fill="#a9e8df" d="M 13.5,57.5 C 13.741,54.001 12.9076,53.6677 11,56.5C 10.3333,55.8333 9.66667,55.1667 9,54.5C 8.18405,55.8228 7.01739,56.4894 5.5,56.5C 8.17595,46.9886 14.176,40.4886 23.5,37C 39.7764,35.5603 56.1097,35.0603 72.5,35.5C 72.5,38.5 72.5,41.5 72.5,44.5C 57.8295,44.3334 43.1629,44.5001 28.5,45C 21.4643,46.8348 16.4643,51.0014 13.5,57.5 Z"/></g>
<g><path style="opacity:0.954" fill="#9adde5" d="M 117.5,45.5 C 120.903,47.8998 123.57,50.8998 125.5,54.5C 122.471,57.859 119.471,61.1924 116.5,64.5C 115.71,63.2058 114.71,62.0391 113.5,61C 113.833,60.6667 114.167,60.3333 114.5,60C 113.167,59.3333 111.833,58.6667 110.5,58C 110.833,57.6667 111.167,57.3333 111.5,57C 110.619,56.2917 109.953,55.4584 109.5,54.5C 111.453,50.8797 114.119,47.8797 117.5,45.5 Z"/></g>
<g><path style="opacity:0.942" fill="#8ed4ea" d="M 87.5,44.5 C 91.5102,45.4784 94.5102,48.1451 96.5,52.5C 90.1389,59.193 83.8056,65.8597 77.5,72.5C 75.5698,68.8998 72.9031,65.8998 69.5,63.5C 74.7967,56.5356 80.7967,50.2023 87.5,44.5 Z"/></g>
<g><path style="opacity:0.966" fill="#9edfe3" d="M 13.5,57.5 C 12.6502,64.7985 12.3169,72.1319 12.5,79.5C 11.1196,80.7065 9.95293,80.3731 9,78.5C 7.56818,80.9312 6.06818,80.9312 4.5,78.5C 4.17503,70.9809 4.50837,63.6476 5.5,56.5C 7.01739,56.4894 8.18405,55.8228 9,54.5C 9.66667,55.1667 10.3333,55.8333 11,56.5C 12.9076,53.6677 13.741,54.001 13.5,57.5 Z"/></g>
<g><path style="opacity:0.95" fill="#92d7e8" d="M 109.5,54.5 C 109.953,55.4584 110.619,56.2917 111.5,57C 111.167,57.3333 110.833,57.6667 110.5,58C 111.833,58.6667 113.167,59.3333 114.5,60C 114.167,60.3333 113.833,60.6667 113.5,61C 114.71,62.0391 115.71,63.2058 116.5,64.5C 112.833,68.8333 108.833,72.8333 104.5,76.5C 102.983,76.4894 101.816,75.8228 101,74.5C 100.667,74.8333 100.333,75.1667 100,75.5C 99.283,72.6519 97.783,70.6519 95.5,69.5C 99.4608,63.8714 104.127,58.8714 109.5,54.5 Z"/></g>
<g><path style="opacity:0.934" fill="#8cd2eb" d="M 95.5,69.5 C 97.783,70.6519 99.283,72.6519 100,75.5C 100.333,75.1667 100.667,74.8333 101,74.5C 101.816,75.8228 102.983,76.4894 104.5,76.5C 101.542,81.1256 97.8755,85.1256 93.5,88.5C 91.5698,84.8998 88.9031,81.8998 85.5,79.5C 88.5,75.8333 91.8333,72.5 95.5,69.5 Z"/></g>
<g><path style="opacity:0.954" fill="#87ceed" d="M 69.5,63.5 C 72.9031,65.8998 75.5698,68.8998 77.5,72.5C 74.4715,75.859 71.4715,79.1924 68.5,82.5C 67.5714,81.0639 66.4048,79.7305 65,78.5C 64.6667,78.8333 64.3333,79.1667 64,79.5C 62.2932,77.184 60.4599,75.8507 58.5,75.5C 61.4578,70.8744 65.1245,66.8744 69.5,63.5 Z"/></g>
<g><path style="opacity:0.938" fill="#98dbe6" d="M 132.5,84.5 C 129.833,84.8333 127.167,85.1667 124.5,85.5C 124.5,80.8333 124.5,76.1667 124.5,71.5C 127.167,71.5 129.833,71.5 132.5,71.5C 132.5,75.8333 132.5,80.1667 132.5,84.5 Z"/></g>
<g><path style="opacity:0.951" fill="#80c9f0" d="M 58.5,75.5 C 60.4599,75.8507 62.2932,77.184 64,79.5C 64.3333,79.1667 64.6667,78.8333 65,78.5C 66.4048,79.7305 67.5714,81.0639 68.5,82.5C 65.5,86.1667 62.1667,89.5 58.5,92.5C 57.6715,91.6676 56.8382,92.001 56,93.5C 53.267,90.9375 50.767,88.2709 48.5,85.5C 51.5,81.8333 54.8333,78.5 58.5,75.5 Z"/></g>
<g><path style="opacity:1" fill="#92d7e8" d="M 4.5,78.5 C 6.06818,80.9312 7.56818,80.9312 9,78.5C 9.95293,80.3731 11.1196,80.7065 12.5,79.5C 12.5,85.5 12.5,91.5 12.5,97.5C 9.83333,97.1667 7.16667,96.8333 4.5,96.5C 4.5,90.5 4.5,84.5 4.5,78.5 Z"/></g>
<g><path style="opacity:0.982" fill="#79c4f2" d="M 48.5,85.5 C 50.767,88.2709 53.267,90.9375 56,93.5C 56.8382,92.001 57.6715,91.6676 58.5,92.5C 60.1667,96.1667 62.8333,98.8333 66.5,100.5C 68.1504,103.854 70.817,106.854 74.5,109.5C 69.4525,115.086 63.1191,118.419 55.5,119.5C 51.0246,113.828 46.0246,109.328 40.5,106C 41.1712,105.014 41.1712,103.847 40.5,102.5C 40.9353,95.7089 43.6019,90.0422 48.5,85.5 Z"/></g>
<g><path style="opacity:0.946" fill="#82cbef" d="M 85.5,79.5 C 88.9031,81.8998 91.5698,84.8998 93.5,88.5C 87.5079,95.8246 81.1746,102.825 74.5,109.5C 70.817,106.854 68.1504,103.854 66.5,100.5C 72.4921,93.1754 78.8254,86.1754 85.5,79.5 Z"/></g>
<g><path style="opacity:1" fill="#8ed3ea" d="M 132.5,84.5 C 132.5,92.8333 132.5,101.167 132.5,109.5C 131.542,109.047 130.708,108.381 130,107.5C 128.081,108.074 126.247,108.407 124.5,108.5C 124.5,100.833 124.5,93.1667 124.5,85.5C 127.167,85.1667 129.833,84.8333 132.5,84.5 Z"/></g>
<g><path style="opacity:0.96" fill="#72bff5" d="M 40.5,102.5 C 41.1712,103.847 41.1712,105.014 40.5,106C 46.0246,109.328 51.0246,113.828 55.5,119.5C 50.3261,122.747 44.6594,124.247 38.5,124C 36.8481,122.53 35.8481,120.697 35.5,118.5C 36.8029,112.931 38.4696,107.598 40.5,102.5 Z"/></g>
<g><path style="opacity:1" fill="#88cfec" d="M 4.5,96.5 C 7.16667,96.8333 9.83333,97.1667 12.5,97.5C 12.5,105.5 12.5,113.5 12.5,121.5C 9.83333,121.167 7.16667,120.833 4.5,120.5C 4.5,112.5 4.5,104.5 4.5,96.5 Z"/></g>
<g><path style="opacity:1" fill="#87ceed" d="M 132.5,109.5 C 132.5,113.5 132.5,117.5 132.5,121.5C 129.833,121.167 127.167,120.833 124.5,120.5C 124.5,116.5 124.5,112.5 124.5,108.5C 126.247,108.407 128.081,108.074 130,107.5C 130.708,108.381 131.542,109.047 132.5,109.5 Z"/></g>
<g><path style="opacity:0.944" fill="#7cc6f1" d="M 4.5,120.5 C 7.16667,120.833 9.83333,121.167 12.5,121.5C 11.6762,130.586 13.0096,139.252 16.5,147.5C 14.629,147.141 13.129,146.141 12,144.5C 10.0576,145.516 7.89093,145.849 5.5,145.5C 4.56044,137.221 4.22711,128.888 4.5,120.5 Z"/></g>
<g><path style="opacity:0.942" fill="#7cc7f1" d="M 124.5,120.5 C 127.167,120.833 129.833,121.167 132.5,121.5C 132.799,129.253 132.466,136.92 131.5,144.5C 128.21,145.264 125.21,145.264 122.5,144.5C 124.16,136.608 124.827,128.608 124.5,120.5 Z"/></g>
<g><path style="opacity:0.92" fill="#72bff5" d="M 16.5,147.5 C 19.6338,151.241 23.6338,153.741 28.5,155C 55.1667,155.667 81.8333,155.667 108.5,155C 114.484,153.183 119.15,149.683 122.5,144.5C 125.21,145.264 128.21,145.264 131.5,144.5C 128.384,153.449 122.384,159.616 113.5,163C 98.5515,164.134 83.5515,164.634 68.5,164.5C 53.4485,164.634 38.4485,164.134 23.5,163C 15.0347,159.701 9.03472,153.868 5.5,145.5C 7.89093,145.849 10.0576,145.516 12,144.5C 13.129,146.141 14.629,147.141 16.5,147.5 Z"/></g>
</svg>
