<?xml version="1.0" standalone="no"?>
<!DOCTYPE svg PUBLIC "-//W3C//DTD SVG 20010904//EN"
 "http://www.w3.org/TR/2001/REC-SVG-20010904/DTD/svg10.dtd">
<svg version="1.0" xmlns="http://www.w3.org/2000/svg"
 width="125.000000pt" height="125.000000pt" viewBox="0 0 125.000000 125.000000"
 preserveAspectRatio="xMidYMid meet">

<g transform="translate(0.000000,125.000000) scale(0.100000,-0.100000)"
fill="#000000" stroke="none">
<path d="M85 1213 c-11 -2 -30 -6 -42 -9 l-23 -4 0 -585 0 -585 340 0 340 0 2
351 3 351 125 -156 c75 -93 132 -156 143 -156 16 0 17 16 17 205 l0 205 -25 0
-24 0 -3 -157 -3 -157 -124 157 c-79 100 -131 157 -143 157 -17 0 -18 -19 -18
-374 l0 -374 -183 -4 c-100 -2 -233 -1 -295 0 l-112 4 2 546 3 547 547 0 548
0 0 -90 c1 -49 1 -296 1 -548 l-1 -459 -202 -1 c-202 -2 -203 -2 -206 -25 l-3
-22 230 0 231 0 0 595 0 595 -552 -1 c-304 -1 -562 -3 -573 -6z"/>
<path d="M240 625 l0 -205 115 0 c128 0 173 12 201 54 25 39 14 104 -23 135
l-29 23 28 28 c31 32 35 55 14 104 -19 45 -70 68 -143 64 -44 -2 -59 -7 -61
-19 -2 -14 9 -17 64 -21 55 -3 70 -8 85 -27 47 -58 3 -111 -93 -111 -51 0 -59
-2 -56 -17 2 -14 15 -19 48 -21 93 -5 130 -29 130 -82 0 -45 -34 -62 -140 -68
l-90 -5 0 187 0 186 -25 0 -25 0 0 -205z"/>
</g>
</svg>
